<mxfile host="app.diagrams.net" agent="Mozilla/5.0 (X11; Linux x86_64) AppleWebKit/537.36 (KHTML, like Gecko) Chrome/125.0.0.0 Safari/537.36" version="26.2.2">
  <diagram id="C5RBs43oDa-KdzZeNtuy" name="Page-1">
    <mxGraphModel dx="2801" dy="1127" grid="1" gridSize="10" guides="1" tooltips="1" connect="1" arrows="1" fold="1" page="1" pageScale="1" pageWidth="827" pageHeight="1169" math="0" shadow="0">
      <root>
        <mxCell id="WIyWlLk6GJQsqaUBKTNV-0" />
        <mxCell id="WIyWlLk6GJQsqaUBKTNV-1" parent="WIyWlLk6GJQsqaUBKTNV-0" />
        <mxCell id="6PssmGfSwWKb-5sigFfC-0" value="first steps is to make sure we have brew , so we can test with weechat aswell as irssi&amp;nbsp;&lt;br&gt;&lt;br&gt;&lt;div&gt;rm -rf $HOME/.brew &amp;amp;&amp;amp; git clone --depth=1 https://github.com/Homebrew/brew $HOME/.brew &amp;amp;&amp;amp; echo &#39;export PATH=$HOME/.brew/bin:$PATH&#39; &amp;gt;&amp;gt; $HOME/.zshrc &amp;amp;&amp;amp; source $HOME/.zshrc &amp;amp;&amp;amp; brew update&lt;br&gt;&lt;/div&gt;" style="rounded=0;whiteSpace=wrap;html=1;" vertex="1" parent="WIyWlLk6GJQsqaUBKTNV-1">
          <mxGeometry x="-827" width="570" height="60" as="geometry" />
        </mxCell>
        <mxCell id="6PssmGfSwWKb-5sigFfC-1" value="then we brew install weechat&amp;nbsp;" style="rounded=0;whiteSpace=wrap;html=1;" vertex="1" parent="WIyWlLk6GJQsqaUBKTNV-1">
          <mxGeometry x="-827" y="60" width="325" height="60" as="geometry" />
        </mxCell>
        <mxCell id="6PssmGfSwWKb-5sigFfC-2" value="server side" style="html=1;whiteSpace=wrap;aspect=fixed;shape=isoRectangle;" vertex="1" parent="WIyWlLk6GJQsqaUBKTNV-1">
          <mxGeometry x="-120" y="90" width="220" height="132" as="geometry" />
        </mxCell>
        <mxCell id="6PssmGfSwWKb-5sigFfC-3" value="client weechat or irssi" style="shape=hexagon;perimeter=hexagonPerimeter2;whiteSpace=wrap;html=1;fixedSize=1;" vertex="1" parent="WIyWlLk6GJQsqaUBKTNV-1">
          <mxGeometry x="760" y="110" width="130" height="80" as="geometry" />
        </mxCell>
        <mxCell id="6PssmGfSwWKb-5sigFfC-4" value="server not yet active&amp;nbsp;" style="html=1;whiteSpace=wrap;aspect=fixed;shape=isoRectangle;" vertex="1" parent="WIyWlLk6GJQsqaUBKTNV-1">
          <mxGeometry x="-120" y="240" width="220" height="132" as="geometry" />
        </mxCell>
        <mxCell id="6PssmGfSwWKb-5sigFfC-5" value="before listening parsing and checks" style="ellipse;whiteSpace=wrap;html=1;" vertex="1" parent="WIyWlLk6GJQsqaUBKTNV-1">
          <mxGeometry x="-330" y="330" width="120" height="80" as="geometry" />
        </mxCell>
        <mxCell id="6PssmGfSwWKb-5sigFfC-6" value="activate listening&amp;nbsp;" style="ellipse;whiteSpace=wrap;html=1;" vertex="1" parent="WIyWlLk6GJQsqaUBKTNV-1">
          <mxGeometry x="-330" y="420" width="120" height="80" as="geometry" />
        </mxCell>
        <mxCell id="6PssmGfSwWKb-5sigFfC-7" value="activate server&amp;nbsp;" style="ellipse;whiteSpace=wrap;html=1;" vertex="1" parent="WIyWlLk6GJQsqaUBKTNV-1">
          <mxGeometry x="-330" y="520" width="120" height="80" as="geometry" />
        </mxCell>
        <mxCell id="6PssmGfSwWKb-5sigFfC-8" value="" style="endArrow=none;dashed=1;html=1;dashPattern=1 3;strokeWidth=2;rounded=0;" edge="1" parent="WIyWlLk6GJQsqaUBKTNV-1" target="6PssmGfSwWKb-5sigFfC-4">
          <mxGeometry width="50" height="50" relative="1" as="geometry">
            <mxPoint x="-210" y="370" as="sourcePoint" />
            <mxPoint x="-160" y="320" as="targetPoint" />
          </mxGeometry>
        </mxCell>
        <mxCell id="6PssmGfSwWKb-5sigFfC-9" value="" style="endArrow=none;dashed=1;html=1;dashPattern=1 3;strokeWidth=2;rounded=0;entryX=0.2;entryY=0.699;entryDx=0;entryDy=0;entryPerimeter=0;" edge="1" parent="WIyWlLk6GJQsqaUBKTNV-1" target="6PssmGfSwWKb-5sigFfC-4">
          <mxGeometry width="50" height="50" relative="1" as="geometry">
            <mxPoint x="-210" y="460" as="sourcePoint" />
            <mxPoint x="-160" y="410" as="targetPoint" />
          </mxGeometry>
        </mxCell>
        <mxCell id="6PssmGfSwWKb-5sigFfC-10" value="" style="endArrow=none;dashed=1;html=1;dashPattern=1 3;strokeWidth=2;rounded=0;entryX=0.394;entryY=0.902;entryDx=0;entryDy=0;entryPerimeter=0;" edge="1" parent="WIyWlLk6GJQsqaUBKTNV-1" target="6PssmGfSwWKb-5sigFfC-4">
          <mxGeometry width="50" height="50" relative="1" as="geometry">
            <mxPoint x="-210" y="570" as="sourcePoint" />
            <mxPoint x="-160" y="520" as="targetPoint" />
          </mxGeometry>
        </mxCell>
        <mxCell id="6PssmGfSwWKb-5sigFfC-11" value="" style="shape=flexArrow;endArrow=classic;html=1;rounded=0;exitX=0.47;exitY=0.972;exitDx=0;exitDy=0;exitPerimeter=0;entryX=0.493;entryY=0.047;entryDx=0;entryDy=0;entryPerimeter=0;" edge="1" parent="WIyWlLk6GJQsqaUBKTNV-1" source="6PssmGfSwWKb-5sigFfC-4" target="6PssmGfSwWKb-5sigFfC-12">
          <mxGeometry width="50" height="50" relative="1" as="geometry">
            <mxPoint x="110" y="550" as="sourcePoint" />
            <mxPoint x="120" y="550" as="targetPoint" />
          </mxGeometry>
        </mxCell>
        <mxCell id="6PssmGfSwWKb-5sigFfC-12" value="server is active (a while active loop of some kind)" style="html=1;whiteSpace=wrap;aspect=fixed;shape=isoRectangle;" vertex="1" parent="WIyWlLk6GJQsqaUBKTNV-1">
          <mxGeometry x="-210" y="640" width="250" height="150" as="geometry" />
        </mxCell>
        <mxCell id="6PssmGfSwWKb-5sigFfC-16" value="/query $me (brings you to private messages )" style="text;strokeColor=none;fillColor=none;align=left;verticalAlign=middle;spacingLeft=4;spacingRight=4;overflow=hidden;points=[[0,0.5],[1,0.5]];portConstraint=eastwest;rotatable=0;whiteSpace=wrap;html=1;" vertex="1" parent="WIyWlLk6GJQsqaUBKTNV-1">
          <mxGeometry x="710" y="610" width="350" height="30" as="geometry" />
        </mxCell>
        <mxCell id="6PssmGfSwWKb-5sigFfC-17" value="/connect irc.libera.chat/ownserver" style="text;strokeColor=none;fillColor=none;align=left;verticalAlign=middle;spacingLeft=4;spacingRight=4;overflow=hidden;points=[[0,0.5],[1,0.5]];portConstraint=eastwest;rotatable=0;whiteSpace=wrap;html=1;" vertex="1" parent="WIyWlLk6GJQsqaUBKTNV-1">
          <mxGeometry x="720" y="580" width="390" height="30" as="geometry" />
        </mxCell>
        <mxCell id="6PssmGfSwWKb-5sigFfC-18" value="/quit to exit" style="text;strokeColor=none;fillColor=none;align=left;verticalAlign=middle;spacingLeft=4;spacingRight=4;overflow=hidden;points=[[0,0.5],[1,0.5]];portConstraint=eastwest;rotatable=0;whiteSpace=wrap;html=1;" vertex="1" parent="WIyWlLk6GJQsqaUBKTNV-1">
          <mxGeometry x="827" y="730" width="310" height="30" as="geometry" />
        </mxCell>
        <mxCell id="6PssmGfSwWKb-5sigFfC-19" value="/whois (shows who user is)" style="text;strokeColor=none;fillColor=none;align=left;verticalAlign=middle;spacingLeft=4;spacingRight=4;overflow=hidden;points=[[0,0.5],[1,0.5]];portConstraint=eastwest;rotatable=0;whiteSpace=wrap;html=1;" vertex="1" parent="WIyWlLk6GJQsqaUBKTNV-1">
          <mxGeometry x="760" y="680" width="290" height="30" as="geometry" />
        </mxCell>
        <mxCell id="6PssmGfSwWKb-5sigFfC-20" value="/window list (irssi manages details in multiple windows)" style="text;strokeColor=none;fillColor=none;align=left;verticalAlign=middle;spacingLeft=4;spacingRight=4;overflow=hidden;points=[[0,0.5],[1,0.5]];portConstraint=eastwest;rotatable=0;whiteSpace=wrap;html=1;" vertex="1" parent="WIyWlLk6GJQsqaUBKTNV-1">
          <mxGeometry x="720" y="640" width="460" height="30" as="geometry" />
        </mxCell>
        <mxCell id="6PssmGfSwWKb-5sigFfC-22" value="&lt;div&gt;How This Works Technically&lt;/div&gt;&lt;div&gt;/msg NickServ COMMAND → Sends a private message to NickServ.&lt;/div&gt;&lt;div&gt;COMMAND could be HELP&lt;/div&gt;&lt;div&gt;NickServ responds → Irssi automatically opens a query window for the response.&lt;/div&gt;&lt;div&gt;&lt;br&gt;&lt;/div&gt;&lt;div&gt;Irssi processes the output → Displays the response in the NickServ window, rather than the main channel.&lt;/div&gt;" style="rounded=0;whiteSpace=wrap;html=1;" vertex="1" parent="WIyWlLk6GJQsqaUBKTNV-1">
          <mxGeometry x="1290" y="180" width="680" height="110" as="geometry" />
        </mxCell>
        <mxCell id="6PssmGfSwWKb-5sigFfC-24" value="libera.chat" style="triangle;whiteSpace=wrap;html=1;" vertex="1" parent="WIyWlLk6GJQsqaUBKTNV-1">
          <mxGeometry x="1150" y="190" width="160" height="80" as="geometry" />
        </mxCell>
        <mxCell id="6PssmGfSwWKb-5sigFfC-25" value="/msg Friend123 Hey, how&#39;s it going?&lt;br&gt;this sends a message to another user which is client side&amp;nbsp;" style="rounded=0;whiteSpace=wrap;html=1;" vertex="1" parent="WIyWlLk6GJQsqaUBKTNV-1">
          <mxGeometry x="720" y="800" width="560" height="60" as="geometry" />
        </mxCell>
        <mxCell id="6PssmGfSwWKb-5sigFfC-27" value="" style="shape=actor;whiteSpace=wrap;html=1;" vertex="1" parent="WIyWlLk6GJQsqaUBKTNV-1">
          <mxGeometry x="-480" y="790" width="40" height="50" as="geometry" />
        </mxCell>
        <mxCell id="6PssmGfSwWKb-5sigFfC-28" value="&lt;div&gt;CAN I USE IDEA?&lt;/div&gt;Anope and Atheme are not traditional IRC bots, but rather IRC services packages—they act like an extension to an IRC server rather than a standalone bot.&lt;br&gt;&lt;br&gt;&lt;br&gt;Anope: A widely used IRC services package that provides features like NickServ (nickname registration), ChanServ (channel management), and OperServ (admin tools).&lt;br&gt;&lt;br&gt;&lt;br&gt;Atheme: A lightweight alternative to Anope, also offering NickServ/ChanServ-style features." style="ellipse;shape=cloud;whiteSpace=wrap;html=1;" vertex="1" parent="WIyWlLk6GJQsqaUBKTNV-1">
          <mxGeometry x="-630" y="1260" width="1150" height="250" as="geometry" />
        </mxCell>
        <mxCell id="6PssmGfSwWKb-5sigFfC-29" value="" style="shape=table;startSize=0;container=1;collapsible=0;childLayout=tableLayout;fontSize=16;" vertex="1" parent="WIyWlLk6GJQsqaUBKTNV-1">
          <mxGeometry x="-600" y="890" width="780" height="120" as="geometry" />
        </mxCell>
        <mxCell id="6PssmGfSwWKb-5sigFfC-30" value="" style="shape=tableRow;horizontal=0;startSize=0;swimlaneHead=0;swimlaneBody=0;strokeColor=inherit;top=0;left=0;bottom=0;right=0;collapsible=0;dropTarget=0;fillColor=none;points=[[0,0.5],[1,0.5]];portConstraint=eastwest;fontSize=16;" vertex="1" parent="6PssmGfSwWKb-5sigFfC-29">
          <mxGeometry width="780" height="40" as="geometry" />
        </mxCell>
        <mxCell id="6PssmGfSwWKb-5sigFfC-31" value="user class" style="shape=partialRectangle;html=1;whiteSpace=wrap;connectable=0;strokeColor=inherit;overflow=hidden;fillColor=none;top=0;left=0;bottom=0;right=0;pointerEvents=1;fontSize=16;" vertex="1" parent="6PssmGfSwWKb-5sigFfC-30">
          <mxGeometry width="260" height="40" as="geometry">
            <mxRectangle width="260" height="40" as="alternateBounds" />
          </mxGeometry>
        </mxCell>
        <mxCell id="6PssmGfSwWKb-5sigFfC-32" value="server class" style="shape=partialRectangle;html=1;whiteSpace=wrap;connectable=0;strokeColor=inherit;overflow=hidden;fillColor=none;top=0;left=0;bottom=0;right=0;pointerEvents=1;fontSize=16;" vertex="1" parent="6PssmGfSwWKb-5sigFfC-30">
          <mxGeometry x="260" width="260" height="40" as="geometry">
            <mxRectangle width="260" height="40" as="alternateBounds" />
          </mxGeometry>
        </mxCell>
        <mxCell id="6PssmGfSwWKb-5sigFfC-33" value="" style="shape=partialRectangle;html=1;whiteSpace=wrap;connectable=0;strokeColor=inherit;overflow=hidden;fillColor=none;top=0;left=0;bottom=0;right=0;pointerEvents=1;fontSize=16;" vertex="1" parent="6PssmGfSwWKb-5sigFfC-30">
          <mxGeometry x="520" width="260" height="40" as="geometry">
            <mxRectangle width="260" height="40" as="alternateBounds" />
          </mxGeometry>
        </mxCell>
        <mxCell id="6PssmGfSwWKb-5sigFfC-34" value="" style="shape=tableRow;horizontal=0;startSize=0;swimlaneHead=0;swimlaneBody=0;strokeColor=inherit;top=0;left=0;bottom=0;right=0;collapsible=0;dropTarget=0;fillColor=none;points=[[0,0.5],[1,0.5]];portConstraint=eastwest;fontSize=16;" vertex="1" parent="6PssmGfSwWKb-5sigFfC-29">
          <mxGeometry y="40" width="780" height="40" as="geometry" />
        </mxCell>
        <mxCell id="6PssmGfSwWKb-5sigFfC-35" value="" style="shape=partialRectangle;html=1;whiteSpace=wrap;connectable=0;strokeColor=inherit;overflow=hidden;fillColor=none;top=0;left=0;bottom=0;right=0;pointerEvents=1;fontSize=16;" vertex="1" parent="6PssmGfSwWKb-5sigFfC-34">
          <mxGeometry width="260" height="40" as="geometry">
            <mxRectangle width="260" height="40" as="alternateBounds" />
          </mxGeometry>
        </mxCell>
        <mxCell id="6PssmGfSwWKb-5sigFfC-36" value="" style="shape=partialRectangle;html=1;whiteSpace=wrap;connectable=0;strokeColor=inherit;overflow=hidden;fillColor=none;top=0;left=0;bottom=0;right=0;pointerEvents=1;fontSize=16;" vertex="1" parent="6PssmGfSwWKb-5sigFfC-34">
          <mxGeometry x="260" width="260" height="40" as="geometry">
            <mxRectangle width="260" height="40" as="alternateBounds" />
          </mxGeometry>
        </mxCell>
        <mxCell id="6PssmGfSwWKb-5sigFfC-37" value="" style="shape=partialRectangle;html=1;whiteSpace=wrap;connectable=0;strokeColor=inherit;overflow=hidden;fillColor=none;top=0;left=0;bottom=0;right=0;pointerEvents=1;fontSize=16;" vertex="1" parent="6PssmGfSwWKb-5sigFfC-34">
          <mxGeometry x="520" width="260" height="40" as="geometry">
            <mxRectangle width="260" height="40" as="alternateBounds" />
          </mxGeometry>
        </mxCell>
        <mxCell id="6PssmGfSwWKb-5sigFfC-38" value="" style="shape=tableRow;horizontal=0;startSize=0;swimlaneHead=0;swimlaneBody=0;strokeColor=inherit;top=0;left=0;bottom=0;right=0;collapsible=0;dropTarget=0;fillColor=none;points=[[0,0.5],[1,0.5]];portConstraint=eastwest;fontSize=16;" vertex="1" parent="6PssmGfSwWKb-5sigFfC-29">
          <mxGeometry y="80" width="780" height="40" as="geometry" />
        </mxCell>
        <mxCell id="6PssmGfSwWKb-5sigFfC-39" value="" style="shape=partialRectangle;html=1;whiteSpace=wrap;connectable=0;strokeColor=inherit;overflow=hidden;fillColor=none;top=0;left=0;bottom=0;right=0;pointerEvents=1;fontSize=16;" vertex="1" parent="6PssmGfSwWKb-5sigFfC-38">
          <mxGeometry width="260" height="40" as="geometry">
            <mxRectangle width="260" height="40" as="alternateBounds" />
          </mxGeometry>
        </mxCell>
        <mxCell id="6PssmGfSwWKb-5sigFfC-40" value="" style="shape=partialRectangle;html=1;whiteSpace=wrap;connectable=0;strokeColor=inherit;overflow=hidden;fillColor=none;top=0;left=0;bottom=0;right=0;pointerEvents=1;fontSize=16;" vertex="1" parent="6PssmGfSwWKb-5sigFfC-38">
          <mxGeometry x="260" width="260" height="40" as="geometry">
            <mxRectangle width="260" height="40" as="alternateBounds" />
          </mxGeometry>
        </mxCell>
        <mxCell id="6PssmGfSwWKb-5sigFfC-41" value="" style="shape=partialRectangle;html=1;whiteSpace=wrap;connectable=0;strokeColor=inherit;overflow=hidden;fillColor=none;top=0;left=0;bottom=0;right=0;pointerEvents=1;fontSize=16;" vertex="1" parent="6PssmGfSwWKb-5sigFfC-38">
          <mxGeometry x="520" width="260" height="40" as="geometry">
            <mxRectangle width="260" height="40" as="alternateBounds" />
          </mxGeometry>
        </mxCell>
        <mxCell id="6PssmGfSwWKb-5sigFfC-42" value="" style="shape=process;whiteSpace=wrap;html=1;backgroundOutline=1;" vertex="1" parent="WIyWlLk6GJQsqaUBKTNV-1">
          <mxGeometry x="1090" y="310" width="210" height="110" as="geometry" />
        </mxCell>
        <mxCell id="6PssmGfSwWKb-5sigFfC-44" value="user2" style="shape=actor;whiteSpace=wrap;html=1;" vertex="1" parent="WIyWlLk6GJQsqaUBKTNV-1">
          <mxGeometry x="590" y="280" width="100" height="80" as="geometry" />
        </mxCell>
        <mxCell id="6PssmGfSwWKb-5sigFfC-45" value="" style="endArrow=none;dashed=1;html=1;dashPattern=1 3;strokeWidth=2;rounded=0;exitX=0.9;exitY=0.5;exitDx=0;exitDy=0;exitPerimeter=0;" edge="1" parent="WIyWlLk6GJQsqaUBKTNV-1" source="6PssmGfSwWKb-5sigFfC-44" target="6PssmGfSwWKb-5sigFfC-3">
          <mxGeometry width="50" height="50" relative="1" as="geometry">
            <mxPoint x="590" y="320" as="sourcePoint" />
            <mxPoint x="640" y="270" as="targetPoint" />
          </mxGeometry>
        </mxCell>
        <mxCell id="6PssmGfSwWKb-5sigFfC-46" value="socket" style="strokeWidth=2;html=1;shape=mxgraph.flowchart.direct_data;whiteSpace=wrap;" vertex="1" parent="WIyWlLk6GJQsqaUBKTNV-1">
          <mxGeometry x="470" y="440" width="60" height="60" as="geometry" />
        </mxCell>
        <mxCell id="6PssmGfSwWKb-5sigFfC-48" value="" style="endArrow=classic;startArrow=classic;html=1;rounded=0;exitX=1.028;exitY=0.4;exitDx=0;exitDy=0;exitPerimeter=0;entryX=0;entryY=1;entryDx=0;entryDy=0;entryPerimeter=0;" edge="1" parent="WIyWlLk6GJQsqaUBKTNV-1" source="6PssmGfSwWKb-5sigFfC-46" target="6PssmGfSwWKb-5sigFfC-44">
          <mxGeometry width="50" height="50" relative="1" as="geometry">
            <mxPoint x="400" y="520" as="sourcePoint" />
            <mxPoint x="450" y="470" as="targetPoint" />
          </mxGeometry>
        </mxCell>
        <mxCell id="6PssmGfSwWKb-5sigFfC-49" value="" style="endArrow=classic;startArrow=classic;html=1;rounded=0;entryX=0.083;entryY=0.733;entryDx=0;entryDy=0;entryPerimeter=0;exitX=0.855;exitY=0;exitDx=0;exitDy=4.35;exitPerimeter=0;" edge="1" parent="WIyWlLk6GJQsqaUBKTNV-1" source="6PssmGfSwWKb-5sigFfC-59" target="6PssmGfSwWKb-5sigFfC-46">
          <mxGeometry width="50" height="50" relative="1" as="geometry">
            <mxPoint x="260" y="630" as="sourcePoint" />
            <mxPoint x="260" y="560" as="targetPoint" />
          </mxGeometry>
        </mxCell>
        <mxCell id="6PssmGfSwWKb-5sigFfC-50" value="user1" style="shape=actor;whiteSpace=wrap;html=1;" vertex="1" parent="WIyWlLk6GJQsqaUBKTNV-1">
          <mxGeometry x="550" y="140" width="80" height="90" as="geometry" />
        </mxCell>
        <mxCell id="6PssmGfSwWKb-5sigFfC-51" value="" style="endArrow=none;dashed=1;html=1;dashPattern=1 3;strokeWidth=2;rounded=0;entryX=0;entryY=0.75;entryDx=0;entryDy=0;" edge="1" parent="WIyWlLk6GJQsqaUBKTNV-1" source="6PssmGfSwWKb-5sigFfC-50" target="6PssmGfSwWKb-5sigFfC-3">
          <mxGeometry width="50" height="50" relative="1" as="geometry">
            <mxPoint x="530" y="320" as="sourcePoint" />
            <mxPoint x="580" y="270" as="targetPoint" />
          </mxGeometry>
        </mxCell>
        <mxCell id="6PssmGfSwWKb-5sigFfC-52" value="socket" style="strokeWidth=2;html=1;shape=mxgraph.flowchart.direct_data;whiteSpace=wrap;" vertex="1" parent="WIyWlLk6GJQsqaUBKTNV-1">
          <mxGeometry x="324" y="360" width="60" height="60" as="geometry" />
        </mxCell>
        <mxCell id="6PssmGfSwWKb-5sigFfC-53" value="" style="endArrow=classic;startArrow=classic;html=1;rounded=0;entryX=0.054;entryY=0.963;entryDx=0;entryDy=0;entryPerimeter=0;" edge="1" parent="WIyWlLk6GJQsqaUBKTNV-1" source="6PssmGfSwWKb-5sigFfC-52" target="6PssmGfSwWKb-5sigFfC-50">
          <mxGeometry width="50" height="50" relative="1" as="geometry">
            <mxPoint x="420" y="370" as="sourcePoint" />
            <mxPoint x="470" y="320" as="targetPoint" />
          </mxGeometry>
        </mxCell>
        <mxCell id="6PssmGfSwWKb-5sigFfC-56" value="continues stream of data . eg /msg and whats to follow" style="rounded=1;whiteSpace=wrap;html=1;rotation=-30;" vertex="1" parent="WIyWlLk6GJQsqaUBKTNV-1">
          <mxGeometry x="370" y="252" width="120" height="60" as="geometry" />
        </mxCell>
        <mxCell id="6PssmGfSwWKb-5sigFfC-57" value="" style="endArrow=classic;startArrow=classic;html=1;rounded=0;exitX=1;exitY=0;exitDx=0;exitDy=52.5;exitPerimeter=0;entryX=0.08;entryY=1;entryDx=0;entryDy=0;entryPerimeter=0;" edge="1" parent="WIyWlLk6GJQsqaUBKTNV-1" source="6PssmGfSwWKb-5sigFfC-58" target="6PssmGfSwWKb-5sigFfC-52">
          <mxGeometry width="50" height="50" relative="1" as="geometry">
            <mxPoint x="220" y="610" as="sourcePoint" />
            <mxPoint x="310" y="450" as="targetPoint" />
          </mxGeometry>
        </mxCell>
        <mxCell id="6PssmGfSwWKb-5sigFfC-58" value="&lt;div&gt;input stream to&lt;/div&gt;buffer" style="shape=cylinder3;whiteSpace=wrap;html=1;boundedLbl=1;backgroundOutline=1;size=15;" vertex="1" parent="WIyWlLk6GJQsqaUBKTNV-1">
          <mxGeometry x="230" y="420" width="60" height="100" as="geometry" />
        </mxCell>
        <mxCell id="6PssmGfSwWKb-5sigFfC-59" value="&lt;div&gt;input stream to&lt;/div&gt;buffer" style="shape=cylinder3;whiteSpace=wrap;html=1;boundedLbl=1;backgroundOutline=1;size=15;" vertex="1" parent="WIyWlLk6GJQsqaUBKTNV-1">
          <mxGeometry x="310" y="520" width="60" height="80" as="geometry" />
        </mxCell>
        <mxCell id="6PssmGfSwWKb-5sigFfC-61" value="Instead of forking, the server can use non-blocking sockets or multiplexing techniques (select(), poll(), or epoll() in Linux) to manage multiple connections in a single thread." style="ellipse;shape=cloud;whiteSpace=wrap;html=1;" vertex="1" parent="WIyWlLk6GJQsqaUBKTNV-1">
          <mxGeometry x="270" y="930" width="520" height="180" as="geometry" />
        </mxCell>
        <mxCell id="6PssmGfSwWKb-5sigFfC-63" value="" style="endArrow=none;html=1;rounded=0;exitX=0.143;exitY=0.293;exitDx=0;exitDy=0;exitPerimeter=0;" edge="1" parent="WIyWlLk6GJQsqaUBKTNV-1" source="6PssmGfSwWKb-5sigFfC-61">
          <mxGeometry width="50" height="50" relative="1" as="geometry">
            <mxPoint x="340" y="940" as="sourcePoint" />
            <mxPoint x="70" y="650" as="targetPoint" />
          </mxGeometry>
        </mxCell>
        <mxCell id="6PssmGfSwWKb-5sigFfC-64" value="buffer is parsed, cleaned and handled" style="rounded=1;whiteSpace=wrap;html=1;rotation=-30;" vertex="1" parent="WIyWlLk6GJQsqaUBKTNV-1">
          <mxGeometry x="70" y="540" width="120" height="60" as="geometry" />
        </mxCell>
        <mxCell id="6PssmGfSwWKb-5sigFfC-65" value="buffer is parsed, cleaned and handled" style="rounded=1;whiteSpace=wrap;html=1;rotation=-30;" vertex="1" parent="WIyWlLk6GJQsqaUBKTNV-1">
          <mxGeometry x="120.00152422706631" y="620.0007621135331" width="120" height="60" as="geometry" />
        </mxCell>
      </root>
    </mxGraphModel>
  </diagram>
</mxfile>
